<svg xmlns="http://www.w3.org/2000/svg" width="500" height="571.56897" viewBox="0 0 132.29167 151.22763"><g style="fill:#000;fill-opacity:1"><path fill="#0c0a0a" d="M91.96 17.94c14.71-4.32 30.77-4.02 45.31.84 14.77 5.06 28.09 14.77 36.83 27.77 10.87-1.68 22.04-2.72 32.94-.59 24.12 3.99 45.94 19.6 57.57 41.09-8.76 5-18.01 9.09-26.96 13.74-7.23-9.86-16.5-18.39-27.52-23.83-7.4-3.63-15.84-4.48-23.96-3.58 2.83 15.05 1.72 30.95-4.41 45.08-5.12 12.06-13.63 22.49-23.95 30.49 22.69.17 45.38-.07 68.06.12.19 10.8.15 21.6.05 32.4-29.54.03-59.07.07-88.61-.02-.41 13.45-.66 27.29-5.61 40-4.4 11.25-9.76 22.3-17.57 31.61-5.8 6.89-11.32 14.15-18.42 19.78-5.95-8.96-10.73-18.68-16.23-27.94 3.47-2.68 7.39-4.79 10.47-7.97 11.16-11.09 16.46-26.75 18.28-42.09.93-10.39.68-20.85 1.3-31.26-15.94-.98-31.64-6.85-43.86-17.22C49.36 132.91 39.29 112.18 39 91.02c-.38-13.67 3.09-27.41 10.01-39.21 9.33-16.19 25.05-28.54 42.95-33.87M81.99 53c-10.34 8.88-16.71 22.34-16.58 36.01-.15 10.14 3.2 20.24 9.17 28.41 8.22 11.35 21.66 18.95 35.71 19.56.5-10.4.07-20.98 2.95-31.1 5.01-19.87 17.93-37.46 35.09-48.58l1.07.25c-6.32-6.88-14.44-12.19-23.51-14.58-15.09-4.31-32.16-.35-43.9 10.03m58.1 76.12c14.37-9.84 22.86-27.5 21.01-44.89-13.73 10.38-22.14 27.62-21.01 44.89z" style="fill:#000;fill-opacity:1" transform="translate(-22.85 -8.738) scale(.5863)"/><path d="m148.33 57.3.55-.318c.19.184.595.287.52.568a2.54 2.54 0 0 1-1.07-.25" style="fill:#000;fill-opacity:1;stroke:none;stroke-width:.75px;stroke-linecap:butt;stroke-linejoin:miter;stroke-opacity:1" transform="translate(-22.85 -8.738) scale(.5863)"/></g></svg>